<?xml version="1.0" standalone="no"?>
<!DOCTYPE svg PUBLIC "-//W3C//DTD SVG 20010904//EN"
 "http://www.w3.org/TR/2001/REC-SVG-20010904/DTD/svg10.dtd">
<svg version="1.0" xmlns="http://www.w3.org/2000/svg"
 width="467.000000pt" height="534.000000pt" viewBox="0 0 467.000000 534.000000"
 preserveAspectRatio="xMidYMid meet">

<g transform="translate(0.000000,534.000000) scale(0.100000,-0.100000)"
fill="#000000" stroke="none">
<path d="M1534 3758 c-10 -18 -19 -65 -22 -105 -4 -65 -2 -78 27 -140 18 -37
50 -90 71 -118 86 -112 88 -137 21 -289 -76 -171 -85 -205 -78 -296 4 -59 11
-87 27 -110 12 -16 26 -30 32 -30 6 0 67 54 135 121 145 139 283 256 348 294
25 15 45 28 45 30 0 2 -15 -1 -32 -6 -18 -5 -51 -9 -74 -9 -49 0 -67 17 -90
84 -14 40 -14 50 -3 57 26 16 148 24 359 23 226 0 313 -13 423 -62 85 -38 147
-118 147 -188 0 -34 -42 -105 -88 -147 l-30 -29 -11 35 c-28 84 -191 186 -364
229 -48 12 -89 19 -92 17 -10 -11 19 -87 50 -129 24 -33 59 -60 120 -95 114
-66 178 -108 182 -120 2 -5 -32 -25 -75 -44 -42 -19 -136 -63 -209 -99 -108
-52 -137 -63 -162 -57 -24 5 -31 3 -31 -8 0 -22 -69 -51 -122 -51 -27 0 -48
-1 -48 -3 0 -1 19 -12 43 -24 23 -12 44 -23 46 -25 2 -2 -11 -20 -28 -40 -23
-26 -29 -39 -22 -48 15 -18 -15 -58 -39 -51 -19 6 -36 -20 -19 -30 16 -11 -1
-25 -27 -23 -25 2 -46 24 -127 131 -59 77 -43 44 28 -60 l66 -96 -15 -38 c-15
-37 -15 -37 12 -47 15 -6 74 -13 132 -15 93 -4 116 -8 200 -42 84 -34 105 -39
180 -39 105 -1 144 17 247 115 82 78 114 97 178 106 42 5 45 4 46 -18 0 -24 0
-24 9 -2 6 14 21 23 49 28 86 14 202 114 277 237 47 77 124 271 131 329 13
109 -61 281 -171 397 -67 70 -203 172 -231 172 -8 0 -16 9 -20 19 -10 32 -61
81 -84 81 -20 0 -21 -1 -6 -23 19 -30 11 -37 -28 -26 -49 14 -213 40 -244 38
-15 -1 -50 6 -77 15 -125 43 -308 62 -355 37 -21 -12 -23 -17 -16 -67 7 -59 7
-59 -55 -54 -57 4 -249 129 -385 249 -29 25 -121 91 -128 91 -4 0 -14 -15 -23
-32z m1036 -1517 c12 -24 13 -54 1 -47 -5 3 -11 0 -14 -8 -3 -9 -15 -12 -31
-9 -21 4 -26 1 -26 -15 0 -24 16 -38 23 -20 4 9 6 10 6 1 1 -19 -15 -23 -35
-9 -22 16 -24 86 -4 111 18 22 67 19 80 -4z"/>
<path d="M2528 2223 c7 -3 16 -2 19 1 4 3 -2 6 -13 5 -11 0 -14 -3 -6 -6z"/>
<path d="M767 3289 c7 -7 15 -10 18 -7 3 3 -2 9 -12 12 -14 6 -15 5 -6 -5z"/>
<path d="M134 3194 c-18 -14 -18 -15 4 -4 12 6 22 13 22 15 0 8 -5 6 -26 -11z"/>
<path d="M3729 3164 c-13 -14 -17 -23 -9 -19 13 5 46 45 37 45 -2 0 -14 -11
-28 -26z"/>
<path d="M956 3122 c-3 -5 1 -9 9 -9 8 0 12 4 9 9 -3 4 -7 8 -9 8 -2 0 -6 -4
-9 -8z"/>
<path d="M3695 3120 c-3 -5 1 -10 10 -10 9 0 13 5 10 10 -3 6 -8 10 -10 10 -2
0 -7 -4 -10 -10z"/>
<path d="M4616 3113 c-6 -14 -5 -15 5 -6 7 7 10 15 7 18 -3 3 -9 -2 -12 -12z"/>
<path d="M763 3113 c26 -2 68 -2 95 0 26 2 4 3 -48 3 -52 0 -74 -1 -47 -3z"/>
<path d="M3768 3113 c6 -2 18 -2 25 0 6 3 1 5 -13 5 -14 0 -19 -2 -12 -5z"/>
<path d="M70 3071 c5 -11 15 -23 21 -27 6 -3 3 5 -6 20 -20 30 -30 35 -15 7z"/>
<path d="M4574 3058 l-19 -23 23 19 c12 11 22 21 22 23 0 8 -8 2 -26 -19z"/>
<path d="M3758 3033 c7 -3 16 -2 19 1 4 3 -2 6 -13 5 -11 0 -14 -3 -6 -6z"/>
<path d="M3710 3025 c0 -5 10 -21 21 -35 13 -17 17 -18 10 -5 -17 33 -31 51
-31 40z"/>
<path d="M4519 3003 c-13 -16 -12 -17 4 -4 9 7 17 15 17 17 0 8 -8 3 -21 -13z"/>
<path d="M130 3006 c0 -2 8 -10 18 -17 15 -13 16 -12 3 4 -13 16 -21 21 -21
13z"/>
<path d="M921 2980 c-13 -11 -19 -20 -14 -20 6 0 18 9 28 20 23 25 17 25 -14
0z"/>
<path d="M287 2899 c7 -7 15 -10 18 -7 3 3 -2 9 -12 12 -14 6 -15 5 -6 -5z"/>
<path d="M750 2870 c-8 -5 -10 -10 -5 -10 6 0 17 5 25 10 8 5 11 10 5 10 -5 0
-17 -5 -25 -10z"/>
<path d="M4128 2833 c12 -2 32 -2 45 0 12 2 2 4 -23 4 -25 0 -35 -2 -22 -4z"/>
<path d="M130 2746 c-15 -40 -32 -108 -27 -112 2 -2 11 24 21 57 16 60 17 61
36 44 22 -20 26 -14 10 16 -14 26 -29 24 -40 -5z"/>
<path d="M4502 2750 c-6 -11 -12 -25 -12 -32 1 -7 6 -3 14 10 14 27 25 19 45
-33 10 -28 11 -28 6 -3 -8 40 -23 78 -32 78 -5 0 -14 -9 -21 -20z"/>
<path d="M181 2694 c0 -11 3 -14 6 -6 3 7 2 16 -1 19 -3 4 -6 -2 -5 -13z"/>
<path d="M193 2620 c0 -25 2 -35 4 -22 2 12 2 32 0 45 -2 12 -4 2 -4 -23z"/>
<path d="M4561 2644 c0 -11 3 -14 6 -6 3 7 2 16 -1 19 -3 4 -6 -2 -5 -13z"/>
<path d="M4473 2615 c0 -22 2 -30 4 -17 2 12 2 30 0 40 -3 9 -5 -1 -4 -23z"/>
<path d="M311 2607 c-7 -19 -30 -60 -51 -90 -22 -31 -40 -58 -40 -62 0 -11 67
81 86 117 15 30 18 31 25 13 7 -18 8 -17 8 5 0 14 -3 31 -8 39 -6 10 -12 4
-20 -22z"/>
<path d="M4337 2626 c-4 -10 -7 -27 -6 -39 0 -21 1 -21 8 -2 7 18 10 17 25
-13 21 -41 86 -127 86 -114 0 5 -16 30 -35 55 -20 26 -44 66 -54 89 -14 33
-19 38 -24 24z"/>
<path d="M4572 2579 c-1 -25 -9 -68 -17 -94 -8 -27 -12 -51 -10 -53 10 -10 36
111 32 150 l-4 43 -1 -46z"/>
<path d="M91 2574 c-1 -39 26 -150 35 -142 2 3 0 18 -6 34 -6 16 -14 56 -19
89 -7 53 -9 55 -10 19z"/>
<path d="M4482 2550 c0 -14 2 -19 5 -12 2 6 2 18 0 25 -3 6 -5 1 -5 -13z"/>
<path d="M182 2540 c0 -14 2 -19 5 -12 2 6 2 18 0 25 -3 6 -5 1 -5 -13z"/>
<path d="M24 2475 c-3 -25 -4 -49 0 -52 3 -4 6 6 6 20 0 33 13 35 29 5 9 -18
10 -19 6 -3 -4 11 -9 32 -12 48 -8 41 -21 33 -29 -18z"/>
<path d="M4332 2500 c0 -14 2 -19 5 -12 2 6 2 18 0 25 -3 6 -5 1 -5 -13z"/>
<path d="M4616 2488 c-8 -42 -66 -158 -79 -158 -6 0 -7 19 -3 48 3 28 2 42 -3
33 -7 -11 -9 -11 -14 0 -3 8 -6 -6 -6 -31 -2 -59 -17 -86 -26 -44 -11 48 -15
52 -10 7 3 -24 3 -43 1 -43 -10 0 -58 57 -97 114 -21 32 -39 54 -39 49 0 -10
19 -40 72 -110 60 -78 82 -174 58 -239 -12 -31 -19 -27 -31 18 l-9 33 5 -37
c2 -21 0 -40 -4 -43 -5 -2 -34 30 -65 71 -31 42 -56 72 -56 67 0 -12 27 -51
66 -94 17 -20 37 -53 44 -74 21 -65 -5 -200 -34 -176 -7 6 -15 8 -18 5 -3 -3
-16 11 -28 30 -31 52 -34 44 -4 -11 22 -41 25 -57 21 -109 -5 -67 -24 -115
-37 -94 -5 8 -11 3 -18 -16 -9 -28 -10 -27 -47 54 -21 45 -40 81 -42 78 -2 -2
12 -38 32 -81 39 -86 48 -174 21 -211 -16 -21 -22 -14 -29 41 -2 17 -5 3 -6
-30 -1 -68 -10 -107 -21 -100 -4 2 -10 -18 -13 -45 -6 -52 -31 -110 -47 -110
-6 0 -11 33 -12 73 l-2 72 -3 -65 c-6 -125 -19 -159 -39 -102 -8 22 -10 17 -6
-30 3 -45 0 -67 -18 -103 -12 -25 -27 -44 -33 -42 -6 2 -21 -17 -33 -42 l-22
-46 -2 35 c-2 27 -4 22 -11 -25 -8 -50 -15 -65 -51 -102 -44 -45 -63 -48 -48
-7 6 14 10 33 9 42 -1 27 -38 -90 -39 -122 0 -20 -4 -27 -14 -23 -8 3 -17 -1
-20 -8 -3 -8 -39 -39 -80 -70 -41 -30 -88 -72 -103 -92 -15 -20 -41 -44 -57
-54 -24 -15 -27 -19 -14 -24 23 -9 55 11 72 44 18 34 70 81 130 116 43 25 47
26 104 14 112 -23 201 26 261 143 20 38 52 80 82 106 56 50 105 116 115 157
l7 29 -35 -22 c-19 -12 -59 -26 -89 -33 -47 -9 -61 -18 -110 -70 -54 -57 -79
-72 -79 -46 0 6 26 50 58 97 54 81 59 85 92 83 19 -1 27 1 18 3 -23 7 -23 29
0 46 9 7 31 31 49 53 26 33 43 44 104 63 39 12 74 20 76 18 7 -6 -23 -60 -52
-95 -35 -41 -80 -72 -119 -81 -26 -7 -27 -8 -7 -9 60 -3 153 89 196 192 17 42
14 45 -24 18 -14 -11 -52 -27 -83 -36 -31 -9 -66 -26 -77 -38 -11 -12 -33 -38
-50 -57 -42 -48 -39 -21 6 68 l36 72 53 0 c64 0 100 13 137 48 34 32 82 110
73 119 -3 4 -6 2 -6 -4 0 -5 -14 -31 -31 -56 -37 -56 -101 -97 -152 -97 -42 0
-48 17 -17 45 12 11 30 36 42 57 13 23 35 43 57 53 20 8 53 24 73 35 47 25 51
25 43 -2 -5 -21 -5 -21 9 2 9 14 15 33 16 43 0 16 -4 15 -33 -7 -18 -14 -58
-37 -89 -50 -45 -20 -62 -35 -83 -70 -14 -24 -32 -50 -40 -56 -24 -20 -19 30
12 107 33 87 37 90 72 85 90 -13 199 83 241 211 15 47 7 57 -23 30 -12 -12
-49 -34 -82 -50 -47 -22 -67 -39 -93 -78 -39 -61 -57 -70 -47 -25 10 47 45
121 58 124 7 2 31 9 55 15 23 7 58 26 78 43 34 30 84 113 84 140 0 7 -13 -15
-29 -48 -31 -65 -76 -108 -130 -124 -37 -10 -39 -3 -11 42 11 18 20 38 20 43
-1 6 -8 -2 -16 -17 -15 -29 -34 -37 -34 -15 0 7 6 36 14 63 8 27 20 68 26 92
6 23 17 42 24 42 44 0 147 118 145 166 0 13 -3 11 -9 -8 -12 -42 -47 -94 -75
-112 -32 -21 -38 -20 -29 7 6 21 6 21 -14 -3 l-21 -25 0 35 c1 48 13 85 27 83
7 -2 12 5 12 14 0 21 82 192 93 193 4 0 7 -12 7 -27 0 -14 3 -24 6 -20 9 8 -5
97 -15 97 -5 0 -11 -15 -15 -32z m-37 -695 c-43 -90 -121 -152 -191 -153 -38
0 -42 13 -12 41 14 13 34 41 45 61 15 30 34 45 96 75 43 21 80 35 81 31 2 -5
-6 -29 -19 -55z m-301 -724 c-49 -88 -148 -147 -223 -133 -19 3 -35 7 -35 9 0
2 27 30 59 63 50 51 69 63 116 76 31 8 60 17 63 20 3 3 14 6 24 6 18 0 18 -2
-4 -41z m-179 -155 c8 -8 -7 -15 -74 -33 -37 -11 -74 -26 -83 -35 -12 -12 -6
-11 23 4 22 11 49 20 61 20 12 0 38 7 58 15 46 19 48 6 7 -55 -53 -80 -158
-126 -226 -100 l-29 11 30 18 c16 10 38 29 49 42 16 20 14 19 -11 -3 -31 -28
-64 -37 -64 -17 0 6 30 42 67 81 l68 69 60 -6 c33 -4 62 -9 64 -11z"/>
<path d="M328 2484 c-8 -35 -107 -174 -125 -174 -8 0 -10 13 -8 38 l5 37 -9
-33 c-5 -18 -11 -36 -14 -39 -11 -10 -20 48 -14 95 5 41 4 43 -5 18 -7 -18
-13 -24 -18 -16 -4 6 -5 -11 -2 -39 2 -28 2 -51 -1 -51 -3 0 -19 24 -36 53
-17 28 -31 49 -31 44 0 -4 14 -31 30 -60 17 -30 30 -63 30 -75 0 -12 5 -21 12
-19 13 2 26 -34 27 -81 1 -36 -14 -35 -30 2 -8 18 -9 17 -4 -6 7 -38 -7 -35
-52 10 l-37 37 25 -34 c19 -26 69 -62 107 -77 4 -2 52 -177 52 -191 0 -22 -19
-14 -34 15 -8 15 -15 23 -16 17 0 -5 9 -25 20 -43 26 -43 26 -46 -12 -38 -46
9 -95 51 -123 104 -13 26 -24 43 -25 39 0 -4 9 -25 19 -46 27 -52 82 -98 133
-111 65 -18 68 -21 94 -84 29 -67 29 -104 2 -71 -10 11 -28 36 -41 55 -15 23
-44 45 -82 63 -33 16 -70 38 -82 50 -32 29 -39 15 -18 -38 9 -26 19 -44 22
-41 2 2 0 13 -6 24 -20 38 -11 41 42 13 29 -15 62 -30 74 -33 11 -3 36 -30 55
-59 19 -30 42 -60 51 -68 41 -33 -23 -42 -88 -12 -37 16 -80 57 -113 107 -7
10 -6 5 2 -12 33 -70 133 -131 197 -122 35 5 39 1 73 -84 43 -110 28 -147 -24
-57 -21 35 -40 51 -98 80 -39 19 -81 44 -92 54 -18 16 -20 16 -20 2 0 -18 46
-127 54 -127 3 0 -4 21 -15 46 -12 25 -18 48 -16 51 3 2 23 -5 44 -16 21 -11
54 -28 74 -36 22 -10 44 -30 57 -53 12 -21 30 -46 42 -57 32 -29 25 -45 -19
-45 -41 0 -92 29 -138 78 -24 25 -24 26 -11 2 8 -13 32 -38 52 -54 31 -26 48
-31 106 -34 l69 -4 35 -68 c20 -37 36 -76 36 -86 -1 -19 -8 -13 -76 69 -12 14
-41 31 -65 37 -24 6 -63 23 -86 36 -23 13 -44 24 -47 24 -11 0 23 -73 57 -123
35 -53 108 -108 141 -106 14 1 10 5 -14 12 -44 14 -132 101 -148 145 -9 26 -9
33 1 30 135 -40 138 -42 170 -82 18 -23 42 -49 55 -60 24 -19 21 -30 -13 -40
-11 -3 -4 -4 16 -2 20 3 40 1 45 -2 15 -11 114 -167 114 -180 0 -24 -23 -11
-78 47 -49 51 -65 61 -111 70 -30 6 -69 21 -88 32 -24 15 -33 17 -33 7 0 -28
61 -117 112 -163 29 -26 61 -59 70 -74 10 -14 18 -20 18 -14 0 10 9 10 37 -1
21 -8 55 -17 76 -21 27 -4 49 -18 75 -47 20 -22 50 -48 66 -59 l30 -18 -28
-11 c-57 -21 -121 -1 -189 59 -47 42 -49 43 -28 13 39 -56 94 -86 159 -86 32
-1 73 3 92 7 31 7 42 4 95 -32 33 -22 76 -53 94 -68 34 -27 35 -18 2 21 -9 10
-49 43 -89 73 -40 29 -75 60 -78 68 -3 7 -12 11 -20 8 -10 -4 -14 3 -14 23 0
16 -9 58 -20 92 -11 35 -21 78 -21 95 -1 26 -3 28 -6 8 -4 -21 7 -84 23 -125
11 -29 -21 -17 -59 22 -31 31 -39 48 -46 98 -7 46 -9 51 -11 24 l-2 -35 -18
40 c-10 22 -24 40 -31 40 -7 0 -23 20 -36 45 -20 37 -24 56 -21 105 3 49 2 55
-6 32 -20 -56 -33 -22 -39 103 l-3 65 -2 -72 c-1 -43 -6 -73 -12 -73 -16 0
-50 80 -50 116 0 17 9 57 20 89 11 32 18 60 16 62 -2 2 -12 -20 -21 -49 -10
-29 -20 -57 -23 -62 -9 -17 -21 27 -23 89 -2 45 -3 50 -6 23 -8 -76 -43 -30
-43 57 0 41 7 70 29 113 15 31 31 68 35 82 3 14 -13 -13 -35 -60 -41 -83 -42
-84 -51 -56 -8 20 -13 25 -19 15 -11 -19 -30 32 -36 98 -5 47 -1 59 46 146 28
52 51 103 50 113 0 12 -4 7 -10 -11 -11 -40 -84 -160 -95 -158 -5 1 -15 -3
-21 -9 -20 -16 -37 37 -38 113 0 69 3 77 85 183 17 21 30 43 30 49 0 5 -12 -7
-26 -28 -40 -59 -88 -114 -96 -109 -4 2 -5 21 -3 42 l5 37 -9 -33 c-12 -45
-19 -49 -31 -18 -25 68 -1 163 63 245 53 68 79 117 75 139 -2 10 -6 5 -10 -14z
m154 -1403 c37 -9 62 -25 112 -75 l65 -64 -35 -5 c-82 -14 -155 24 -216 112
-41 59 -41 78 0 57 15 -7 48 -18 74 -25z m281 -220 c37 -38 67 -74 67 -80 0
-26 -41 -8 -75 33 -35 44 -52 53 -142 76 -71 18 -51 33 53 38 26 2 41 -9 97
-67z"/>
<path d="M4491 2494 c0 -11 3 -14 6 -6 3 7 2 16 -1 19 -3 4 -6 -2 -5 -13z"/>
<path d="M206 2425 c-3 -9 -6 -22 -5 -28 0 -7 5 -1 10 12 5 13 8 26 5 28 -2 2
-6 -3 -10 -12z"/>
<path d="M4451 2435 c1 -19 18 -51 18 -35 0 8 -4 22 -9 30 -5 8 -9 11 -9 5z"/>
<path d="M346 2378 c-10 -24 -31 -60 -47 -81 -31 -39 -60 -97 -58 -119 0 -7 7
5 15 27 8 22 28 57 44 77 16 20 35 48 41 62 15 32 26 33 32 4 3 -15 5 -11 5
12 3 59 -13 67 -32 18z"/>
<path d="M4297 2406 c-4 -9 -6 -32 -6 -49 l1 -32 7 30 7 30 18 -35 c10 -19 29
-47 43 -61 13 -14 32 -48 43 -75 10 -27 19 -43 20 -36 0 22 -29 82 -59 120
-15 21 -37 57 -48 82 -15 36 -21 41 -26 26z"/>
<path d="M4105 2396 c-14 -10 -24 -11 -32 -4 -9 7 -17 7 -27 -1 -7 -6 -24 -10
-37 -9 -21 3 -24 -1 -21 -30 3 -40 27 -102 40 -102 6 0 1 17 -9 37 -23 45 -25
77 -4 70 8 -4 17 -1 21 4 3 6 17 8 31 4 14 -3 31 -1 40 7 12 10 17 9 28 -5 11
-15 17 -16 40 -5 22 10 28 9 36 -3 16 -25 10 -36 -37 -78 -51 -44 -50 -53 0
-21 44 27 62 63 50 98 -9 23 -15 27 -43 24 -21 -1 -38 3 -45 13 -10 14 -14 14
-31 1z"/>
<path d="M530 2390 c0 -6 -16 -10 -37 -8 -32 3 -38 0 -47 -24 -13 -36 6 -71
51 -99 39 -24 56 -20 19 5 -33 21 -66 57 -66 70 0 6 4 17 9 25 8 12 14 13 36
3 23 -11 29 -10 40 5 11 14 16 15 28 5 9 -8 26 -10 40 -7 14 4 28 2 31 -4 4
-5 13 -8 21 -4 22 8 19 -35 -5 -74 -11 -18 -15 -33 -9 -33 13 0 38 60 41 102
3 29 0 33 -21 30 -13 -1 -30 3 -37 9 -11 9 -18 8 -28 0 -10 -8 -16 -9 -21 -1
-8 13 -45 13 -45 0z"/>
<path d="M21 2299 c0 -19 6 -44 15 -55 8 -10 12 -12 8 -4 -5 8 -11 33 -15 55
l-6 40 -2 -36z"/>
<path d="M380 2213 c0 -12 -3 -30 -6 -40 -5 -17 -5 -17 6 1 10 15 14 16 21 5
7 -11 9 -11 9 2 0 8 -7 24 -15 35 -14 19 -14 19 -15 -3z"/>
<path d="M4271 2211 c-7 -12 -10 -30 -8 -39 4 -16 5 -16 6 1 2 26 18 20 25 -9
8 -29 66 -135 66 -119 0 6 -10 26 -22 45 -12 19 -29 59 -38 89 -16 51 -18 53
-29 32z"/>
<path d="M3115 2180 c-21 -22 -37 -41 -34 -43 2 -1 42 -18 89 -37 66 -27 103
-36 163 -39 49 -2 83 1 90 8 8 8 0 11 -31 11 -47 0 -122 20 -122 33 0 5 -4 6
-9 3 -12 -8 -104 82 -96 94 15 24 -14 7 -50 -30z"/>
<path d="M10 2150 c0 -22 3 -30 9 -22 6 10 16 5 43 -20 57 -54 108 -96 108
-88 0 7 -19 25 -91 85 -13 12 -34 34 -46 50 l-22 30 -1 -35z"/>
<path d="M4629 2145 c-13 -19 -43 -49 -67 -66 -41 -29 -72 -74 -72 -101 0 -7
8 4 18 24 9 20 41 55 70 77 28 23 52 46 52 52 0 6 7 9 15 5 11 -4 15 1 15 19
0 33 -3 32 -31 -10z"/>
<path d="M337 2100 c-15 -26 -27 -52 -27 -56 0 -5 14 15 31 44 17 30 29 55 27
57 -2 2 -16 -18 -31 -45z"/>
<path d="M413 2115 c0 -22 2 -30 4 -17 2 12 2 30 0 40 -3 9 -5 -1 -4 -23z"/>
<path d="M4253 2115 c0 -22 2 -30 4 -17 2 12 2 30 0 40 -3 9 -5 -1 -4 -23z"/>
<path d="M696 2125 c-3 -8 -16 -15 -30 -15 -13 0 -27 -7 -30 -16 -4 -11 -13
-14 -30 -10 -19 5 -25 1 -30 -18 -4 -18 -14 -26 -34 -28 -24 -3 -27 -8 -30
-41 -3 -40 11 -60 51 -70 29 -8 19 10 -13 23 -24 10 -30 19 -30 41 0 25 4 29
30 29 23 0 31 5 36 25 5 20 11 24 30 19 17 -4 26 -1 30 11 5 11 14 15 27 11
12 -3 26 -1 33 5 9 7 14 2 19 -21 4 -17 9 -29 12 -27 6 7 -16 85 -26 92 -5 2
-11 -2 -15 -10z"/>
<path d="M3953 2124 c-6 -10 -13 -32 -16 -49 l-6 -30 13 29 c8 19 16 25 20 17
4 -7 16 -9 28 -5 13 4 24 0 32 -12 8 -11 21 -15 34 -12 15 4 22 0 26 -18 5
-19 13 -24 36 -24 26 0 30 -4 30 -29 0 -22 -6 -31 -30 -41 -16 -7 -30 -16 -30
-21 0 -4 15 -2 33 6 29 12 32 17 32 57 0 39 -2 43 -27 46 -18 2 -28 11 -32 28
-5 20 -11 23 -31 18 -18 -4 -27 -1 -31 10 -3 9 -17 16 -30 16 -12 0 -27 7 -32
17 -9 15 -10 14 -19 -3z"/>
<path d="M22 2080 c0 -14 2 -19 5 -12 2 6 2 18 0 25 -3 6 -5 1 -5 -13z"/>
<path d="M4642 2080 c0 -14 2 -19 5 -12 2 6 2 18 0 25 -3 6 -5 1 -5 -13z"/>
<path d="M1990 2085 c0 -24 179 -62 209 -45 13 7 12 10 -10 19 -55 20 -199 40
-199 26z"/>
<path d="M4261 2057 c-1 -17 35 -97 44 -97 2 0 -4 19 -14 43 -10 23 -21 49
-24 57 -4 12 -6 11 -6 -3z"/>
<path d="M3941 2024 c0 -11 3 -14 6 -6 3 7 2 16 -1 19 -3 4 -6 -2 -5 -13z"/>
<path d="M301 2014 c0 -11 3 -14 6 -6 3 7 2 16 -1 19 -3 4 -6 -2 -5 -13z"/>
<path d="M721 2014 c0 -11 3 -14 6 -6 3 7 2 16 -1 19 -3 4 -6 -2 -5 -13z"/>
<path d="M4361 2020 c0 -8 4 -24 9 -35 5 -13 9 -14 9 -5 0 8 -4 24 -9 35 -5
13 -9 14 -9 5z"/>
<path d="M425 1990 c-4 -17 -4 -34 -1 -37 3 -4 6 5 6 18 1 24 1 24 16 4 16
-19 16 -19 9 5 -12 40 -22 44 -30 10z"/>
<path d="M4221 1997 c-14 -37 -13 -47 1 -22 11 19 11 19 19 0 7 -20 8 -20 8 0
0 11 -3 27 -9 35 -7 11 -11 9 -19 -13z"/>
<path d="M171 1984 c0 -11 3 -14 6 -6 3 7 2 16 -1 19 -3 4 -6 -2 -5 -13z"/>
<path d="M3365 1947 c-86 -28 -146 -77 -385 -312 -135 -133 -283 -270 -330
-305 -169 -125 -320 -175 -413 -137 -48 20 -48 7 1 -26 58 -40 118 -53 188
-39 155 32 290 129 599 434 266 262 269 265 341 301 74 37 158 48 289 38 60
-5 111 -8 113 -6 2 1 -28 15 -65 31 -59 24 -84 28 -183 31 -76 2 -129 -2 -155
-10z"/>
<path d="M463 1910 c0 -25 2 -35 4 -22 2 12 2 32 0 45 -2 12 -4 2 -4 -23z"/>
<path d="M4201 1934 c0 -11 3 -14 6 -6 3 7 2 16 -1 19 -3 4 -6 -2 -5 -13z"/>
<path d="M4251 1934 c0 -11 3 -14 6 -6 3 7 2 16 -1 19 -3 4 -6 -2 -5 -13z"/>
<path d="M397 1905 c-9 -20 -17 -41 -17 -48 0 -7 9 8 20 32 24 52 21 66 -3 16z"/>
<path d="M4279 1865 c8 -24 17 -42 19 -40 6 5 -18 74 -27 80 -5 2 -1 -15 8
-40z"/>
<path d="M4202 1865 c0 -16 2 -22 5 -12 2 9 2 23 0 30 -3 6 -5 -1 -5 -18z"/>
<path d="M793 1861 c-8 -13 -19 -18 -32 -14 -14 3 -23 -1 -27 -11 -5 -13 -14
-15 -34 -11 -24 5 -29 2 -34 -19 -5 -21 -12 -26 -40 -26 -31 0 -34 -3 -39 -37
-8 -46 6 -62 65 -80 53 -16 88 -17 88 -2 0 6 -8 8 -18 5 -19 -6 -96 16 -117
34 -7 6 -10 21 -7 35 4 21 10 25 38 25 20 0 34 5 34 13 0 28 17 40 38 28 18
-9 23 -8 32 9 8 15 17 19 35 14 16 -4 25 -2 25 6 0 6 5 8 10 5 6 -3 10 -32 11
-63 1 -50 2 -53 10 -27 10 34 2 97 -15 120 -10 14 -12 13 -23 -4z"/>
<path d="M3852 1863 c-16 -31 -21 -76 -12 -113 7 -32 8 -31 9 22 1 54 12 80
26 58 3 -5 17 -7 29 -4 18 4 25 1 29 -16 5 -19 8 -20 28 -10 22 13 38 1 39
-27 0 -8 14 -13 34 -13 28 0 34 -4 38 -25 3 -14 -1 -30 -8 -36 -20 -16 -102
-39 -119 -33 -8 4 -15 1 -15 -5 0 -15 35 -14 88 2 60 18 75 36 67 81 -7 33
-10 36 -41 36 -28 0 -35 4 -40 26 -5 21 -10 24 -34 19 -20 -4 -29 -2 -34 11
-4 10 -13 14 -26 11 -13 -3 -25 2 -34 15 -14 19 -15 19 -24 1z"/>
<path d="M473 1750 c-6 -36 -14 -74 -17 -85 -4 -11 0 -6 8 10 8 17 15 42 16
57 0 44 17 41 33 -4 9 -24 16 -36 16 -28 0 8 -10 37 -22 65 l-23 50 -11 -65z"/>
<path d="M4161 1761 c-11 -27 -21 -58 -20 -68 0 -10 7 4 15 30 16 50 34 55 34
9 1 -15 8 -40 16 -57 8 -16 12 -21 8 -10 -3 11 -10 47 -15 80 -6 33 -12 61
-13 63 -2 1 -13 -20 -25 -47z"/>
<path d="M1285 1706 c-66 -17 -101 -32 -136 -57 -26 -18 -29 -26 -29 -76 l0
-55 40 35 c111 101 287 134 463 88 42 -11 134 -43 205 -70 309 -122 495 -159
658 -130 55 9 70 18 133 72 39 33 69 62 68 64 -2 1 -21 -4 -43 -11 -261 -93
-375 -98 -623 -27 -57 17 -170 56 -249 86 -241 94 -359 113 -487 81z"/>
<path d="M442 1620 c0 -14 2 -19 5 -12 2 6 2 18 0 25 -3 6 -5 1 -5 -13z"/>
<path d="M4221 1624 c0 -11 3 -14 6 -6 3 7 2 16 -1 19 -3 4 -6 -2 -5 -13z"/>
<path d="M521 1604 c0 -11 3 -14 6 -6 3 7 2 16 -1 19 -3 4 -6 -2 -5 -13z"/>
<path d="M4141 1604 c0 -11 3 -14 6 -6 3 7 2 16 -1 19 -3 4 -6 -2 -5 -13z"/>
<path d="M960 1590 c0 -20 -9 -24 -41 -21 -10 1 -19 -8 -23 -24 -5 -19 -13
-25 -35 -25 -23 0 -30 -5 -34 -29 -5 -22 -13 -31 -37 -36 -28 -6 -30 -10 -30
-49 0 -23 5 -47 12 -54 7 -7 37 -12 67 -12 30 0 51 3 47 7 -4 4 -22 6 -41 4
-51 -4 -77 14 -73 52 2 27 8 33 33 37 24 4 31 11 35 35 5 26 9 30 32 27 22 -3
28 2 34 23 5 22 11 25 30 21 16 -4 26 -1 33 11 9 16 12 16 21 3 5 -8 10 -26
11 -40 0 -14 5 -34 10 -45 15 -33 1 62 -16 101 -15 37 -35 45 -35 14z"/>
<path d="M3677 1578 c-8 -18 -18 -53 -21 -78 -7 -55 9 -26 19 33 6 38 19 48
29 22 4 -11 13 -14 30 -9 19 4 25 1 30 -21 6 -21 12 -26 34 -23 23 3 27 -1 32
-27 4 -24 11 -31 35 -35 24 -4 31 -11 33 -34 5 -38 -9 -49 -71 -57 l-52 -6 56
-2 c64 -1 79 9 79 59 0 40 -14 60 -42 60 -13 0 -20 10 -24 30 -5 25 -11 30
-35 30 -22 0 -30 6 -35 25 -5 19 -12 25 -28 23 -14 -2 -24 4 -31 20 -13 30
-20 28 -38 -10z"/>
<path d="M562 1548 c1 -44 2 -46 5 -15 5 41 18 49 28 16 4 -11 9 -18 12 -16 7
8 -26 67 -37 67 -6 0 -9 -24 -8 -52z"/>
<path d="M4075 1569 c-9 -17 -14 -33 -12 -36 3 -2 8 5 12 16 10 32 25 25 26
-11 0 -18 7 -51 15 -73 7 -22 11 -29 8 -15 -3 14 -8 53 -11 88 -3 34 -10 62
-14 62 -5 0 -16 -14 -24 -31z"/>
<path d="M4166 1531 c10 -37 33 -88 33 -71 0 8 -9 33 -20 55 -10 22 -16 29
-13 16z"/>
<path d="M546 1464 c-4 -14 -5 -28 -3 -31 3 -2 8 8 11 23 4 14 5 28 3 31 -3 2
-8 -8 -11 -23z"/>
<path d="M622 1450 c-1 -19 -5 -46 -7 -60 l-6 -25 11 25 c6 13 9 40 7 60 l-4
35 -1 -35z"/>
<path d="M4041 1444 c1 -21 5 -50 9 -64 5 -16 6 -2 3 35 -7 69 -13 86 -12 29z"/>
<path d="M651 1364 c0 -27 3 -33 8 -21 6 17 8 17 20 3 7 -9 19 -33 27 -53 7
-21 13 -30 14 -20 0 21 -24 71 -51 106 l-19 24 1 -39z"/>
<path d="M3998 1373 c-23 -26 -48 -79 -48 -100 1 -10 7 -1 14 20 16 44 35 69
47 61 5 -3 9 4 9 15 0 26 -3 26 -22 4z"/>
<path d="M1134 1315 c-5 -19 -11 -24 -25 -20 -12 4 -21 -1 -29 -15 -7 -13 -21
-20 -39 -20 -23 0 -30 -6 -37 -32 -7 -22 -17 -34 -34 -38 -18 -4 -26 -13 -27
-30 -1 -14 0 -17 3 -8 3 10 20 20 40 24 30 5 34 10 34 36 0 27 3 30 26 25 20
-3 28 1 36 19 7 15 20 24 34 24 13 0 27 8 33 18 19 34 34 -35 26 -125 -6 -78
-4 -85 21 -129 24 -40 25 -46 9 -43 -10 2 -33 24 -50 49 l-32 45 -75 -3 c-70
-4 -77 -2 -92 19 l-16 23 0 -22 c0 -31 41 -45 117 -39 l63 5 35 -49 c56 -78
99 -57 51 24 -23 41 -25 51 -19 128 4 64 2 93 -10 122 -19 43 -34 48 -43 12z"/>
<path d="M3493 1303 c-12 -29 -14 -57 -9 -121 6 -77 4 -86 -20 -128 -48 -82
-5 -103 51 -25 l35 49 63 -5 c77 -6 117 8 116 39 -1 17 -2 19 -6 6 -6 -24 -42
-32 -114 -25 l-59 5 -35 -49 c-50 -70 -78 -64 -34 8 19 30 20 42 14 114 -5 56
-3 89 6 110 10 25 14 28 21 15 5 -9 19 -16 32 -16 14 0 27 -9 34 -24 8 -18 16
-22 36 -19 23 5 26 2 26 -25 0 -26 4 -31 34 -36 19 -4 37 -12 40 -19 3 -7 5
-3 3 8 -1 11 -12 22 -27 25 -17 4 -27 16 -34 38 -7 26 -14 32 -37 32 -19 0
-30 6 -34 21 -5 15 -13 19 -27 16 -13 -4 -22 2 -30 19 -15 33 -26 30 -45 -13z"/>
<path d="M639 1233 c-2 -21 -1 -60 2 -88 5 -42 6 -35 7 38 2 90 -3 116 -9 50z"/>
<path d="M4022 1185 c0 -85 1 -87 9 -38 5 30 5 69 0 90 -7 31 -9 22 -9 -52z"/>
<path d="M722 1220 c0 -14 2 -19 5 -12 2 6 2 18 0 25 -3 6 -5 1 -5 -13z"/>
<path d="M770 1213 c0 -13 8 -23 22 -26 31 -9 32 -4 3 23 -24 23 -25 23 -25 3z"/>
<path d="M3855 1184 c-19 -26 -35 -51 -35 -57 0 -5 10 5 23 24 13 19 31 33 40
33 12 -1 17 6 17 22 0 13 -2 24 -5 24 -2 0 -20 -21 -40 -46z"/>
<path d="M2638 1174 c-21 -9 -38 -21 -38 -27 0 -7 4 -7 12 1 19 19 72 14 97
-9 22 -21 51 -77 51 -98 0 -5 -15 -7 -33 -4 -89 14 -156 -89 -128 -195 23 -83
113 -118 188 -72 68 41 83 214 29 324 -38 78 -108 109 -178 80z m123 -191 c13
-33 6 -162 -11 -192 -14 -27 -35 -27 -54 1 -19 26 -22 167 -6 199 16 30 58 25
71 -8z"/>
<path d="M712 1155 c0 -16 2 -22 5 -12 2 9 2 23 0 30 -3 6 -5 -1 -5 -18z"/>
<path d="M783 1110 c0 -41 2 -58 4 -37 2 20 2 54 0 75 -2 20 -4 3 -4 -38z"/>
<path d="M3952 1155 c0 -16 2 -22 5 -12 2 9 2 23 0 30 -3 6 -5 -1 -5 -18z"/>
<path d="M831 1150 c14 -31 19 -36 19 -24 0 6 -7 19 -16 30 -14 18 -14 18 -3
-6z"/>
<path d="M1452 1159 c-91 -18 -141 -75 -111 -128 12 -20 22 -26 49 -26 31 0
35 3 38 28 3 25 1 27 -30 25 -27 -3 -34 1 -36 18 -4 30 43 66 82 62 l31 -3 3
-175 c3 -210 2 -210 113 -210 119 0 169 36 169 121 0 53 -25 93 -66 103 l-25
7 30 28 c55 51 31 129 -47 151 -43 12 -138 11 -200 -1z m182 -31 c31 -44 10
-138 -30 -138 -8 0 -14 -4 -14 -10 0 -5 7 -10 15 -10 9 0 27 -11 40 -25 19
-18 25 -35 25 -69 0 -75 -34 -119 -82 -108 -16 3 -18 20 -18 186 0 100 3 186
7 189 13 14 42 6 57 -15z"/>
<path d="M3883 1120 c0 -30 2 -43 4 -27 2 15 2 39 0 55 -2 15 -4 2 -4 -28z"/>
<path d="M701 1094 c0 -11 3 -14 6 -6 3 7 2 16 -1 19 -3 4 -6 -2 -5 -13z"/>
<path d="M852 1080 c0 -19 2 -27 5 -17 2 9 2 25 0 35 -3 9 -5 1 -5 -18z"/>
<path d="M3814 1000 c0 -63 1 -89 3 -57 2 31 2 83 0 115 -2 31 -3 5 -3 -58z"/>
<path d="M1824 1030 c-12 -5 -25 -14 -30 -21 -5 -8 -3 -10 6 -4 22 14 30 -18
30 -125 0 -69 4 -110 12 -118 19 -19 73 -14 102 9 l27 22 15 -22 c17 -24 61
-28 88 -8 17 12 17 14 2 20 -14 5 -16 24 -16 126 0 99 -3 120 -16 125 -28 11
-51 6 -75 -14 -17 -14 -19 -18 -6 -14 15 6 17 -3 17 -95 0 -89 -2 -101 -19
-111 -47 -25 -51 -17 -51 99 0 135 -16 160 -86 131z"/>
<path d="M2137 1029 c-16 -10 -17 -12 -3 -22 12 -10 16 -38 18 -132 l3 -120
35 0 35 0 3 106 c2 90 6 109 22 124 40 36 49 15 52 -112 l3 -118 35 0 35 0 3
106 c2 90 6 109 22 124 11 10 26 15 35 12 12 -5 15 -26 15 -115 0 -116 6 -132
50 -132 31 0 77 29 48 30 -16 0 -18 12 -18 113 0 98 -3 116 -18 130 -25 23
-51 21 -91 -6 l-34 -23 -23 23 c-29 29 -52 29 -96 -1 l-35 -23 -9 21 c-10 24
-58 32 -87 15z"/>
<path d="M2967 1019 c-64 -34 -93 -121 -63 -193 31 -74 120 -100 193 -55 36
22 40 39 5 20 -34 -18 -62 -12 -93 19 -43 43 -36 66 34 109 78 48 88 67 53 98
-33 28 -78 29 -129 2z m67 -15 c26 -26 20 -60 -16 -82 -18 -11 -36 -18 -40
-16 -12 8 2 76 20 97 18 21 17 21 36 1z"/>
<path d="M3186 1019 c-14 -11 -26 -29 -26 -40 0 -27 23 -69 50 -94 12 -11 29
-33 37 -49 15 -28 14 -31 -7 -48 -27 -22 -39 -22 -70 -2 -22 14 -22 12 3 -10
39 -36 107 -37 142 -1 42 41 32 80 -42 156 -28 29 -44 54 -41 65 3 20 30 29
55 20 12 -5 13 -9 3 -22 -9 -10 -10 -18 -2 -26 15 -15 32 -1 32 26 0 45 -88
62 -134 25z"/>
<path d="M3882 990 c0 -19 2 -27 5 -17 2 9 2 25 0 35 -3 9 -5 1 -5 -18z"/>
<path d="M853 940 c0 -36 2 -50 4 -32 2 17 2 47 0 65 -2 17 -4 3 -4 -33z"/>
<path d="M550 861 c0 -6 4 -13 10 -16 6 -3 7 1 4 9 -7 18 -14 21 -14 7z"/>
<path d="M1693 575 c-43 -19 -42 -24 5 -18 45 6 75 -15 97 -69 l15 -38 -43 0
c-54 0 -90 -30 -106 -86 -14 -51 -14 -56 5 -104 19 -46 55 -70 106 -70 75 0
108 56 108 183 0 66 -4 92 -22 127 -38 73 -103 103 -165 75z m105 -157 c18
-18 16 -158 -4 -186 -35 -51 -64 -11 -64 88 0 32 4 70 10 84 10 28 38 34 58
14z"/>
<path d="M1092 561 c13 -22 28 -28 28 -11 0 5 -9 14 -20 20 -19 10 -20 10 -8
-9z"/>
<path d="M864 551 c-81 -37 -120 -127 -102 -231 15 -84 73 -130 162 -130 l49
0 -6 -36 c-11 -68 -62 -99 -108 -64 -34 24 -39 25 -39 5 0 -42 114 -43 166 -3
40 32 54 77 54 173 0 69 3 85 15 85 8 0 15 5 15 10 0 6 -32 10 -75 10 -43 0
-75 -4 -75 -10 0 -5 11 -10 25 -10 26 0 26 -1 23 -67 -3 -73 -11 -82 -64 -69
-52 13 -80 141 -54 238 14 48 61 98 94 98 21 0 27 -7 36 -40 13 -48 46 -56 56
-14 15 61 -89 94 -172 55z"/>
<path d="M2393 561 c-68 -17 -112 -68 -97 -113 13 -42 84 -40 84 3 0 16 -6 19
-27 17 -24 -3 -28 1 -28 22 0 19 9 29 37 43 21 10 42 16 48 12 6 -4 10 -66 10
-159 0 -184 2 -188 88 -194 107 -8 172 32 172 107 0 43 -22 78 -57 92 l-25 9
26 25 c22 20 27 33 24 62 -5 57 -41 78 -141 80 -45 1 -97 -2 -114 -6z m177
-30 c22 -42 6 -121 -25 -121 -8 0 -15 -4 -15 -10 0 -5 6 -10 14 -10 8 0 24
-12 35 -26 50 -64 3 -187 -59 -154 -19 10 -20 21 -20 169 0 87 3 161 7 164 13
14 53 6 63 -12z"/>
<path d="M3273 543 c-20 -8 -16 -51 6 -58 41 -13 68 24 39 53 -13 13 -24 14
-45 5z"/>
<path d="M3860 492 c0 -4 5 -13 10 -18 16 -16 1 -47 -19 -38 -9 4 -37 9 -63
12 -42 3 -51 1 -78 -26 -37 -38 -41 -95 -9 -136 20 -25 20 -28 5 -45 -19 -21
-21 -52 -4 -69 10 -10 7 -16 -10 -28 -51 -35 -8 -74 83 -74 100 0 159 45 132
101 -14 26 -42 37 -105 38 -48 1 -86 17 -77 32 4 5 29 9 56 9 43 0 55 5 81 30
28 29 30 35 26 88 -4 40 -1 64 10 79 8 13 12 30 8 38 -5 15 -46 22 -46 7z
m-51 -76 c19 -23 10 -127 -12 -140 -26 -16 -47 16 -47 72 0 70 29 104 59 68z
m36 -272 c39 -15 5 -53 -53 -61 -65 -9 -105 29 -69 66 12 12 84 9 122 -5z"/>
<path d="M1159 435 c-24 -13 -39 -39 -53 -90 -10 -36 12 -99 44 -127 89 -80
212 20 179 146 -21 77 -99 110 -170 71z m91 -31 c6 -14 10 -52 10 -84 0 -74
-13 -110 -40 -110 -27 0 -40 36 -40 110 0 74 13 110 40 110 13 0 24 -10 30
-26z"/>
<path d="M1375 440 c-3 -5 -2 -10 4 -10 6 0 11 -46 13 -117 l3 -118 32 -3 31
-3 7 66 c4 36 5 79 2 95 -5 20 -1 35 13 52 l20 23 20 -24 c34 -40 23 -210 -16
-238 -25 -18 0 -16 36 2 45 23 70 82 70 160 0 64 -11 102 -34 117 -21 14 -63
8 -81 -12 -10 -11 -21 -20 -25 -20 -4 0 -10 9 -13 20 -4 15 -14 20 -40 20 -20
0 -39 -4 -42 -10z"/>
<path d="M1967 426 c-118 -109 25 -315 144 -208 27 24 33 37 37 85 8 99 -30
147 -116 147 -27 0 -47 -7 -65 -24z m103 -22 c14 -35 13 -138 -2 -169 -13 -30
-43 -33 -58 -6 -5 11 -10 52 -10 91 0 39 5 80 10 91 15 28 49 24 60 -7z"/>
<path d="M2783 430 c-110 -67 -68 -240 57 -240 34 0 90 28 90 44 0 6 -5 5 -12
-2 -21 -21 -67 -14 -94 15 -36 39 -28 62 39 100 44 27 57 39 57 58 0 46 -79
61 -137 25z m75 -37 c3 -27 -2 -34 -27 -48 -33 -17 -34 -16 -31 30 4 61 52 76
58 18z"/>
<path d="M2965 440 c-3 -5 -2 -10 4 -10 6 0 11 -46 13 -117 l3 -118 33 -3 32
-3 0 94 c0 79 3 99 19 118 18 22 21 23 36 8 35 -34 31 -203 -6 -240 -23 -23
-9 -25 31 -4 17 9 39 33 50 55 32 63 24 198 -13 222 -22 14 -64 8 -82 -12 -10
-11 -21 -20 -25 -20 -4 0 -10 9 -13 20 -4 15 -14 20 -40 20 -20 0 -39 -4 -42
-10z"/>
<path d="M3250 440 c-9 -6 -11 -10 -3 -10 9 0 13 -33 15 -117 l3 -118 29 -3
c16 -2 32 2 37 10 14 21 11 222 -3 236 -14 14 -57 15 -78 2z"/>
<path d="M3392 441 c-11 -7 -11 -9 2 -14 12 -5 16 -28 18 -119 l3 -113 30 0
30 0 3 96 c2 82 6 99 23 115 19 17 21 17 37 0 14 -13 17 -34 16 -105 -2 -84
-13 -127 -38 -143 -26 -18 19 -6 49 12 44 27 60 70 60 161 0 62 -4 81 -19 98
-24 26 -66 27 -99 1 -25 -20 -25 -20 -30 0 -4 15 -14 20 -39 20 -18 0 -39 -4
-46 -9z"/>
</g>
</svg>
